<svg width="255" height="275" viewBox="0 0 255 275" fill="none" xmlns="http://www.w3.org/2000/svg">
<path fill-rule="evenodd" clip-rule="evenodd" d="M12.5 275C5.87258 275 0.5 269.627 0.5 263V12C0.5 5.37258 5.87258 0 12.5 0H51.4123C54.726 0 57.4123 2.68629 57.4123 6V97.6544C57.4123 100.571 61.1539 101.773 62.8518 99.4005L130.41 5.01554C132.663 1.86759 136.297 0 140.168 0H180.675C185.536 0 188.379 5.47891 185.581 9.45408L71.4513 171.559C62.3156 184.536 57.4123 200.017 57.4123 215.887V263C57.4123 269.627 52.0397 275 45.4123 275H12.5ZM80.5 263C80.5 269.627 85.8726 275 92.5 275H129.033C132.347 275 135.033 272.314 135.033 269V242.5C135.033 235.873 140.405 230.5 147.033 230.5H193.755C200.26 230.5 205.581 235.684 205.75 242.187L206.455 269.157C206.54 272.408 209.2 275 212.453 275H243C249.627 275 255 269.627 255 263V12C255 5.37258 249.627 0 243 0H226.709C219.209 0 212.18 3.65652 207.875 9.7976L94.4491 171.601C85.3704 184.552 80.5 199.985 80.5 215.801V263ZM148.7 191.5C142.994 191.5 139.686 185.04 143.02 180.409L186.032 120.684C192.84 111.23 207.77 116.047 207.77 127.697V179.5C207.77 186.127 202.397 191.5 195.77 191.5H148.7Z" fill="white"/>
</svg>
