<svg width="194" height="194" viewBox="0 0 194 194" fill="none" xmlns="http://www.w3.org/2000/svg">
<path fill-rule="evenodd" clip-rule="evenodd" d="M12 194C5.37258 194 0 188.627 0 182V12C0 5.37258 5.37258 0 12 0H37.383C40.6967 0 43.383 2.68629 43.383 6V66.7012C43.383 69.5618 47.006 70.7993 48.7561 68.5366L98.1613 4.65846C100.434 1.72021 103.939 0 107.653 0H134.054C139.017 0 141.834 5.68268 138.829 9.63277L59.1009 114.434C48.9043 127.837 43.383 144.214 43.383 161.054V182C43.383 188.627 38.0105 194 31.383 194H12ZM58.5 182C58.5 188.627 63.8726 194 70.5 194H96.5516C99.8653 194 102.552 191.314 102.552 188V174.607C102.552 167.98 107.924 162.607 114.552 162.607H144.559C151.055 162.607 156.371 167.776 156.555 174.269L156.947 188.169C157.038 191.416 159.697 194 162.944 194H182C188.627 194 194 188.627 194 182V12C194 5.37258 188.627 0 182 0H174.85C167.59 0 160.756 3.42793 156.415 9.24722L73.7818 120.015C63.86 133.315 58.5 149.464 58.5 166.057V182ZM116.869 135.095C111.043 135.095 107.766 128.393 111.344 123.796L136.527 91.4343C143.543 82.4182 157.997 87.3796 157.997 98.804V123.095C157.997 129.722 152.625 135.095 145.997 135.095H116.869Z" fill="white"/>
</svg>
