<svg width="280" height="292" viewBox="0 0 280 292" fill="none" xmlns="http://www.w3.org/2000/svg">
<rect width="280" height="292" rx="59" fill="#161616"/>
<path fill-rule="evenodd" clip-rule="evenodd" d="M61 243C54.3726 243 49 237.627 49 231V61C49 54.3726 54.3726 49 61 49H83.9232C87.2369 49 89.9232 51.6863 89.9232 55V115.282C89.9232 118.185 93.6356 119.395 95.3467 117.05L141.399 53.9274C143.658 50.831 147.261 49 151.093 49H175.179C180.065 49 182.902 54.5283 180.054 58.4982L104.364 163.971C94.9739 177.056 89.9232 192.757 89.9232 208.864V231C89.9232 237.627 84.5506 243 77.9232 243H61ZM106.525 231C106.525 237.627 111.897 243 118.525 243H139.737C143.051 243 145.737 240.314 145.737 237V223.607C145.737 216.98 151.109 211.607 157.737 211.607H184.682C191.186 211.607 196.505 216.787 196.678 223.288L197.048 237.16C197.134 240.41 199.794 243 203.045 243H220C226.627 243 232 237.627 232 231V61C232 54.3726 226.627 49 220 49H214.887C207.461 49 200.491 52.586 196.173 58.6285L120.874 164.012C111.542 177.073 106.525 192.724 106.525 208.777V231ZM159.559 184.095C153.823 184.095 150.522 177.576 153.916 172.952L176.365 142.369C183.226 133.023 198.039 137.876 198.039 149.47V172.095C198.039 178.722 192.666 184.095 186.039 184.095H159.559Z" fill="white"/>
</svg>
